<svg width="80" height="80" viewBox="0 0 80 80" fill="none" xmlns="http://www.w3.org/2000/svg">
<g id="idea-svgrepo-com 1">
<g id="Group">
<g id="Group_2">
<path id="Vector" d="M40.2167 18.1312L40.2155 18.1313C35.1731 18.1692 30.4555 20.167 26.9362 23.7542C23.4129 27.3455 21.5072 32.1051 21.5672 37.1535L21.7172 37.1517L21.5672 37.1535C21.6212 41.6766 23.3069 46.0278 26.3123 49.4071L26.3123 49.4071C28.3657 51.7155 29.4938 54.628 29.4938 57.607V59.8664C29.4938 61.6232 30.8247 63.0749 32.5336 63.2625C32.6585 63.2794 32.7859 63.2855 32.9129 63.2855H47.8299C48.0267 63.2855 48.2198 63.2689 48.409 63.2356C50.019 62.9615 51.249 61.5553 51.249 59.8664V57.7062C51.249 54.6321 52.3605 51.6944 54.3807 49.4332L54.3807 49.4331C57.4561 45.9878 59.1498 41.5446 59.1498 36.9236C59.1498 31.8788 57.176 27.1412 53.5949 23.5862L53.4892 23.6926L53.5949 23.5862C50.0478 20.0651 45.3523 18.1312 40.3595 18.1312L40.2167 18.1312ZM53.1215 48.307L53.1214 48.307C50.8253 50.8799 49.5604 54.2183 49.5604 57.7062V59.8664C49.5604 60.821 48.7845 61.5969 47.8299 61.5969H32.9129C31.9583 61.5969 31.1824 60.821 31.1824 59.8664V57.607C31.1824 54.2107 29.9005 50.9006 27.5739 48.2854C24.8387 45.21 23.3049 41.2496 23.2557 37.132L23.1057 37.1338L23.2557 37.132C23.2007 32.536 24.9369 28.2065 28.1422 24.9382C31.3454 21.6721 35.6353 19.8553 40.2272 19.8198H40.3595C44.9041 19.8198 49.1786 21.5795 52.4056 24.7849L52.4057 24.785C55.6662 28.0199 57.4613 32.3297 57.4613 36.9236C57.4613 41.1298 55.9196 45.1726 53.1215 48.307Z" fill="black" stroke="black" stroke-width="0.3"/>
<path id="Vector_2" d="M32.5522 61.5971H32.4022V61.7471V67.7595C32.4022 70.7186 34.8081 73.1245 37.7673 73.1245H43.1707C46.1279 73.1245 48.5337 70.7186 48.5337 67.7595V61.7471V61.5971H48.3837H32.5522ZM34.1043 68.0438L34.1043 68.0438L34.1039 68.0398C34.0946 67.9487 34.0908 67.8548 34.0908 67.7595V63.2856H46.8452V67.7595C46.8452 67.8548 46.8414 67.9487 46.8321 68.0398L46.832 68.0398L46.8317 68.0438C46.6888 69.9398 45.1011 71.436 43.1707 71.436H37.7673C35.8348 71.436 34.2472 69.9398 34.1043 68.0438Z" fill="black" stroke="black" stroke-width="0.3"/>
<path id="Vector_3" d="M46.1333 38.4232L46.0919 38.3402H45.9992H34.8392H34.7467L34.7052 38.4228L34.5266 38.7779L34.5106 38.8097V38.8453V62.7383V62.8883H34.6606H46.1142H46.2642V62.7383V38.7203V38.6849L46.2484 38.6532L46.1333 38.4232ZM45.3691 61.9932H35.4057V39.2353H45.3691V61.9932Z" fill="black" stroke="black" stroke-width="0.3"/>
<path id="Vector_4" d="M40.6052 27.2645L40.472 26.9956L40.3368 27.2635L34.7053 38.4235L34.7052 38.4237L34.5266 38.7787L34.5106 38.8105V38.8461V39.0861V39.2361H34.6606H46.1142H46.2642V39.0861V38.7211V38.6857L46.2484 38.6541L46.1336 38.4245L46.1333 38.424L40.6052 27.2645ZM37.8454 34.1907L37.8454 34.1906L40.4656 28.9975L43.038 34.1896L43.0381 34.1897L43.2344 34.5863L43.2345 34.5864L45.0949 38.3411H35.7513L37.645 34.5874L37.6451 34.5874L37.8454 34.1907Z" fill="black" stroke="black" stroke-width="0.3"/>
<path id="Vector_5" d="M37.2531 34.6717H43.6741C43.8661 34.6717 44.0225 34.5153 44.0225 34.3234C44.0225 34.1314 43.8661 33.975 43.6741 33.975H37.2531C37.0611 33.975 36.9047 34.1314 36.9047 34.3234C36.9047 34.5153 37.0611 34.6717 37.2531 34.6717Z" fill="black" stroke="black" stroke-width="0.3"/>
<path id="Vector_6" d="M38.1942 62.4408C38.1942 62.6883 38.3943 62.8883 38.6418 62.8883C38.8893 62.8883 39.0893 62.6883 39.0893 62.4408V38.7878C39.0893 38.5403 38.8893 38.3402 38.6418 38.3402C38.3943 38.3402 38.1942 38.5403 38.1942 38.7878V62.4408Z" fill="black" stroke="black" stroke-width="0.3"/>
<path id="Vector_7" d="M41.6835 62.4408C41.6835 62.6883 41.8836 62.8883 42.131 62.8883C42.3785 62.8883 42.5786 62.6883 42.5786 62.4408V38.7878C42.5786 38.5403 42.3785 38.3402 42.131 38.3402C41.8836 38.3402 41.6835 38.5403 41.6835 38.7878V62.4408Z" fill="black" stroke="black" stroke-width="0.3"/>
</g>
<path id="Vector_8" d="M39.1718 14.5056C39.1718 15.1605 39.7031 15.6918 40.358 15.6918C41.0129 15.6918 41.5442 15.1605 41.5442 14.5056V8.78621C41.5442 8.13129 41.0129 7.6 40.358 7.6C39.7031 7.6 39.1718 8.13128 39.1718 8.78621V14.5056Z" fill="black" stroke="black" stroke-width="0.8"/>
<path id="Vector_9" d="M23.588 20.8612H23.5903C23.8919 20.8606 24.1946 20.7475 24.4276 20.5145C24.8905 20.0515 24.8905 19.3006 24.4276 18.8377L20.3829 14.7929L20.1 15.0758L20.3829 14.7929C19.9199 14.33 19.169 14.33 18.706 14.7929C18.243 15.2559 18.243 16.0068 18.706 16.4698L22.7507 20.5145L22.7507 20.5145L22.7528 20.5166C22.9832 20.7435 23.2837 20.8606 23.588 20.8612ZM23.588 20.8612C23.5884 20.8612 23.5888 20.8612 23.5892 20.8612L23.588 20.8612Z" fill="black" stroke="black" stroke-width="0.8"/>
<path id="Vector_10" d="M9.78621 37.8719H15.5056C16.1606 37.8719 16.6918 37.3406 16.6918 36.6857C16.6918 36.0307 16.1606 35.4994 15.5056 35.4994H9.78621C9.13127 35.4994 8.6 36.0307 8.6 36.6857C8.6 37.3406 9.13129 37.8719 9.78621 37.8719Z" fill="black" stroke="black" stroke-width="0.8"/>
<path id="Vector_11" d="M16.5965 61.5728H16.5988C16.9005 61.5722 17.2031 61.4591 17.4361 61.2261L17.1532 60.9433L17.4361 61.2261L21.4785 57.1836C21.9415 56.7207 21.9415 55.9698 21.4785 55.5068C21.0156 55.0438 20.2646 55.0438 19.8017 55.5068L20.0806 55.7857L19.8017 55.5068L15.7592 59.5492C15.2963 60.0122 15.2963 60.7631 15.7592 61.2261L15.7592 61.2261L15.7613 61.2282C15.9917 61.4551 16.2922 61.5722 16.5965 61.5728ZM16.5965 61.5728C16.5969 61.5728 16.5973 61.5728 16.5977 61.5728L16.5965 61.5728Z" fill="black" stroke="black" stroke-width="0.8"/>
<path id="Vector_12" d="M63.9967 61.27H63.999C64.3006 61.2694 64.6032 61.1564 64.8363 60.9233C65.2992 60.4604 65.2992 59.7095 64.8363 59.2465L64.8362 59.2464L60.7916 55.2041C60.7915 55.204 60.7915 55.204 60.7915 55.204C60.3285 54.7411 59.5777 54.7411 59.1147 55.2041C58.6517 55.667 58.6517 56.4179 59.1147 56.8809L59.1148 56.881L63.1595 60.9234L63.1595 60.9234L63.1615 60.9254C63.3919 61.1524 63.6924 61.2694 63.9967 61.27ZM63.9967 61.27C63.9971 61.27 63.9975 61.27 63.9978 61.27L63.9967 61.27ZM63.9979 60.47C63.8992 60.4697 63.8015 60.4325 63.7238 60.3564L59.6804 56.3152C59.6804 56.3152 59.6803 56.3152 59.6803 56.3151C59.5298 56.1646 59.5299 55.9203 59.6804 55.7698C59.8309 55.6192 60.0753 55.6192 60.2259 55.7698L60.226 55.7698L63.9979 60.47Z" fill="black" stroke="black" stroke-width="0.8"/>
<path id="Vector_13" d="M64.4947 37.7293H70.2141C70.869 37.7293 71.4003 37.198 71.4003 36.5431C71.4003 35.8882 70.869 35.3568 70.2141 35.3568H64.4947C63.8398 35.3568 63.3085 35.8882 63.3085 36.5431C63.3085 37.198 63.8398 37.7293 64.4947 37.7293Z" fill="black" stroke="black" stroke-width="0.8"/>
<path id="Vector_14" d="M56.4697 20.5145L56.4697 20.5145C56.0067 20.0515 56.0067 19.3006 56.4697 18.8377M56.4697 20.5145L56.4697 18.8377M56.4697 20.5145L56.4718 20.5166M56.4697 20.5145L56.4718 20.5166M56.4697 18.8377L60.5144 14.7929L60.7953 15.0738L60.5144 14.7929C60.9774 14.33 61.7283 14.33 62.1912 14.7929C62.6542 15.2559 62.6542 16.0068 62.1912 16.4698L58.1465 20.5145L57.8637 20.2317M56.4697 18.8377L57.8637 20.2317M57.8637 20.2317L58.1465 20.5145M57.8637 20.2317L58.1465 20.5145M56.4718 20.5166C56.7021 20.7436 57.0027 20.8606 57.307 20.8612M56.4718 20.5166L57.307 20.8612M57.307 20.8612H57.3093C57.6109 20.8606 57.9135 20.7475 58.1465 20.5145M57.307 20.8612L58.1465 20.5145M57.307 20.8612C57.3074 20.8612 57.3077 20.8612 57.3081 20.8612L57.307 20.8612Z" fill="black" stroke="black" stroke-width="0.8"/>
</g>
</g>
</svg>
