<svg width="76" height="75" viewBox="0 0 76 75" fill="none" xmlns="http://www.w3.org/2000/svg">
<g id="healthicons:ui-user-profile">
<g id="Group">
<path id="Vector" d="M63.2404 18.1086H66.7294C68.0605 18.1086 69.1367 19.1875 69.1367 20.516V58.8915C69.1367 60.2226 68.0578 61.2988 66.7294 61.2988H9.04407C7.71292 61.2988 6.63672 60.2199 6.63672 58.8915V20.516C6.63672 19.1848 7.7156 18.1086 9.04407 18.1086H51.8504" stroke="#010932" stroke-miterlimit="10" stroke-linecap="round"/>
<path id="Vector_2" d="M63.0527 24.802H68.1734" stroke="#010932" stroke-miterlimit="10" stroke-linecap="round"/>
<path id="Vector_3" d="M6.63672 24.802H51.9471" stroke="#010932" stroke-miterlimit="10" stroke-linecap="round"/>
<g id="Group_2">
<path id="Vector_4" d="M27.8398 29.9014V44.9067" stroke="#010932" stroke-width="1.5" stroke-miterlimit="10"/>
<path id="Vector_5" d="M31.7174 41.0852H23.9629" stroke="#010932" stroke-width="1.5" stroke-miterlimit="10"/>
</g>
<g id="Group_3">
<path id="Vector_6" d="M36.1914 29.8894V44.9505" stroke="#010932" stroke-width="1.5" stroke-miterlimit="10"/>
<path id="Vector_7" d="M39.949 33.0991H32.166" stroke="#010932" stroke-width="1.5" stroke-miterlimit="10"/>
</g>
<g id="Group_4">
<path id="Vector_8" d="M44.3906 29.5229V44.5261" stroke="#010932" stroke-width="1.5" stroke-miterlimit="10"/>
<path id="Vector_9" d="M48.2682 41.0852H40.5137" stroke="#010932" stroke-width="1.5" stroke-miterlimit="10"/>
</g>
<path id="Vector_10" d="M12.7103 22.8107C13.4499 22.8107 14.0495 22.2112 14.0495 21.4715C14.0495 20.7319 13.4499 20.1323 12.7103 20.1323C11.9707 20.1323 11.3711 20.7319 11.3711 21.4715C11.3711 22.2112 11.9707 22.8107 12.7103 22.8107Z" stroke="#010932" stroke-miterlimit="10"/>
<path id="Vector_11" d="M17.0658 22.8107C17.8054 22.8107 18.405 22.2112 18.405 21.4715C18.405 20.7319 17.8054 20.1323 17.0658 20.1323C16.3261 20.1323 15.7266 20.7319 15.7266 21.4715C15.7266 22.2112 16.3261 22.8107 17.0658 22.8107Z" stroke="#010932" stroke-miterlimit="10"/>
<path id="Vector_12" d="M21.4994 22.8107C22.239 22.8107 22.8386 22.2112 22.8386 21.4715C22.8386 20.7319 22.239 20.1323 21.4994 20.1323C20.7597 20.1323 20.1602 20.7319 20.1602 21.4715C20.1602 22.2112 20.7597 22.8107 21.4994 22.8107Z" stroke="#010932" stroke-miterlimit="10"/>
<path id="Vector_13" d="M12.1543 55.4822H36.04" stroke="#010932" stroke-miterlimit="10" stroke-linecap="round"/>
<path id="Vector_14" d="M12.1543 52H36.04" stroke="#010932" stroke-miterlimit="10" stroke-linecap="round"/>
<path id="Vector_15" d="M39.7969 55.4822H62.3407" stroke="#010932" stroke-miterlimit="10" stroke-linecap="round"/>
<path id="Vector_16" d="M39.7969 52H62.3407" stroke="#010932" stroke-miterlimit="10" stroke-linecap="round"/>
<g id="Group_5">
<path id="Vector_17" d="M65.5031 20.0947C65.5057 20.0599 65.5084 20.0276 65.5111 19.9928C65.5165 19.8961 65.4655 19.7995 65.4199 19.7136C65.3715 19.6224 65.3018 19.5446 65.2159 19.4882C65.0146 19.3513 64.7543 19.3379 64.5208 19.3621C64.2175 19.3916 63.9035 19.3889 63.6003 19.3594C63.1896 19.3191 63.0259 18.9246 63.2889 18.6106C63.5171 18.3395 63.7747 18.0926 64.0377 17.8538C64.4269 17.5022 64.4644 17.1292 64.1182 16.7427C63.6298 16.1979 63.1682 15.6236 62.6207 15.1458C61.7001 14.3434 61.633 14.3729 60.7662 15.2049C60.6293 15.3364 60.5112 15.4947 60.3529 15.5913C60.2133 15.6772 59.9879 15.7765 59.8778 15.7202C59.7276 15.6423 59.5826 15.4303 59.5585 15.2612C59.5128 14.9365 59.5451 14.601 59.5585 14.2709C59.5799 13.7637 59.3733 13.4309 58.8392 13.4202C57.8999 13.4041 56.9579 13.4041 56.0186 13.4309C55.5677 13.4443 55.3503 13.7315 55.3557 14.185C55.3583 14.5635 55.3771 14.9446 55.3449 15.3203C55.3074 15.7443 54.9289 15.8973 54.6069 15.6236C54.3385 15.3954 54.0889 15.1378 53.8527 14.8748C53.4985 14.483 53.1228 14.4481 52.7443 14.7996C52.1405 15.3605 51.5125 15.9054 50.973 16.5226C50.3719 17.2097 50.4363 17.3492 51.0375 18.0094C51.3139 18.3127 51.7352 18.7502 51.6762 19.04C51.542 19.6788 50.8818 19.3567 50.4712 19.346C50.0767 19.3379 49.6204 19.4157 49.4567 19.8264C49.3977 19.974 49.395 20.135 49.3789 20.2907C49.3601 20.4624 49.3413 20.6369 49.3279 20.8086C49.2984 21.1522 49.2822 21.5011 49.301 21.8473C49.3171 22.172 49.3628 22.486 49.4218 22.8054C49.4486 22.9422 49.4755 23.0845 49.5372 23.2133C49.6419 23.4361 49.8539 23.5005 50.082 23.5246C50.3343 23.5515 50.5866 23.5434 50.8389 23.5434C51.0267 23.5434 51.3058 23.4709 51.3863 23.5649C51.5447 23.7447 51.6037 24.0184 51.6735 24.2627C51.6869 24.3083 51.5527 24.3942 51.4883 24.464C50.2914 25.728 50.2833 25.7683 51.5232 27.0511C51.8989 27.4403 52.3337 27.773 52.747 28.1246C53.1415 28.4601 53.5092 28.4252 53.8581 28.0334C54.0782 27.7865 54.309 27.5422 54.564 27.3383C54.6874 27.2417 54.9289 27.1558 55.039 27.2121C55.1866 27.29 55.31 27.4993 55.3449 27.6737C55.3959 27.9233 55.3852 28.1944 55.353 28.4494C55.2617 29.1794 55.616 29.5256 56.3057 29.5363C57.1538 29.547 58.0019 29.5256 58.8473 29.4934C59.3706 29.4719 59.596 29.1552 59.5665 28.6399C59.5558 28.4279 59.5316 28.2078 59.5719 28.0039C59.6282 27.7328 59.7437 27.4752 59.8322 27.2095C60.0818 27.3222 60.3448 27.4134 60.581 27.5503C60.7206 27.6308 60.836 27.765 60.9353 27.8938C61.3861 28.4869 61.8826 28.452 62.3738 27.9743C62.9642 27.4 63.5412 26.8096 64.1048 26.2084C64.4752 25.8112 64.4537 25.4113 64.0297 25.0436C63.8176 24.8585 63.6003 24.6625 63.4365 24.4371C63.3158 24.2707 63.1628 23.9701 63.2299 23.8655C63.3399 23.6991 63.611 23.6025 63.8337 23.5515C64.0592 23.5005 64.3061 23.5166 64.5396 23.5434C64.808 23.5756 65.1112 23.5515 65.3125 23.3502C65.5916 23.0684 65.5567 22.5665 65.5353 22.2015C65.5165 21.866 65.4762 21.5306 65.4655 21.1924C65.4548 20.8247 65.4708 20.457 65.5057 20.0921L65.5031 20.0947ZM64.4242 22.2874C63.713 22.6926 62.8219 21.9573 62.2503 23.0093C61.5606 24.2761 62.1269 24.9739 63.1789 25.7361C62.6663 26.2138 62.2262 26.6244 61.829 26.9921C61.0131 26.7908 60.9245 25.5884 59.7866 25.9293C58.4662 26.3238 58.1709 27.1263 58.5091 28.4091H56.5741C56.2708 27.6335 56.9015 26.6244 55.5569 26.085C54.2338 25.5509 53.9225 26.5519 53.1415 27.0672C52.7121 26.6378 52.2881 26.2111 51.8614 25.7817C52.3176 24.9927 53.4019 24.6974 52.8329 23.369C52.2908 22.1022 51.3998 22.5209 50.5034 22.3652V20.602C51.2092 20.2209 52.1378 20.9697 52.7175 19.7942C53.3509 18.5113 52.6746 17.9397 51.8211 17.2043C52.2988 16.7534 52.7336 16.3428 53.206 15.8973C53.3562 16.0288 53.5361 16.1442 53.6595 16.3026C54.2016 17.0111 54.7625 17.2258 55.6482 16.7561C56.2252 16.4475 56.5392 16.2086 56.507 15.5162C56.4533 14.3997 56.4963 14.3971 57.6154 14.4293C57.8489 14.4373 58.0797 14.4668 58.3803 14.491C58.5547 15.3874 58.1039 16.3187 59.4189 16.8527C60.734 17.3868 60.9809 16.2757 61.8209 15.8624C62.2342 16.2677 62.6609 16.6863 63.0152 17.0325C62.779 17.9021 61.6357 18.0014 61.9309 19.091C62.2986 20.4383 63.1413 20.7389 64.4269 20.4544V22.2874H64.4242Z" fill="#010932"/>
<path id="Vector_18" d="M59.7443 21.5063C59.7147 22.773 58.6573 23.7795 57.3906 23.7473C56.1319 23.7151 55.1308 22.6442 55.1711 21.3721C55.2087 20.1429 56.2526 19.1553 57.4899 19.1741C58.7674 19.1956 59.7711 20.2342 59.7443 21.5063ZM57.4684 20.2932C56.835 20.2905 56.3063 20.8246 56.309 21.4634C56.3117 22.0914 56.8646 22.6389 57.4845 22.6281C58.0615 22.6174 58.5929 22.0753 58.6063 21.4821C58.6198 20.838 58.1018 20.2959 57.4684 20.2932Z" fill="#010932"/>
</g>
</g>
</g>
</svg>
