<svg width="76" height="75" viewBox="0 0 76 75" fill="none" xmlns="http://www.w3.org/2000/svg">
<g id="healthicons:ui-user-profile">
<g id="Group">
<path id="Vector" d="M33.7871 22.7657H16.0963C15.5318 22.7657 15.0753 23.2222 15.0753 23.7867V51.0855C15.0753 51.65 14.6187 52.1065 14.0543 52.1065H12.0932C11.5288 52.1065 11.0723 51.65 11.0723 51.0855V19.3313C11.0723 18.7668 11.5288 18.3103 12.0932 18.3103H36.0553" stroke="black" stroke-miterlimit="10"/>
<path id="Vector_2" d="M35.9554 18.3103H64.0544C64.6189 18.3103 65.0754 18.7668 65.0754 19.3313V51.0855C65.0754 51.65 64.6189 52.1065 64.0544 52.1065H61.8008C61.2364 52.1065 60.7798 51.65 60.7798 51.0855V23.7867C60.7798 23.2222 60.3233 22.7657 59.7588 22.7657H33.3418" stroke="black" stroke-miterlimit="10"/>
<path id="Vector_3" d="M69.1777 53.1274V57.726C69.1777 58.2905 68.7212 58.747 68.1568 58.747H7.69872C7.13427 58.747 6.67773 58.2905 6.67773 57.726V53.1274C6.67773 52.563 7.13427 52.1064 7.69872 52.1064H27.0684C27.6328 52.1064 28.0893 52.563 28.0893 53.1274C28.0893 53.6919 28.5459 54.1484 29.1103 54.1484H45.7449C46.3093 54.1484 46.7659 53.6919 46.7659 53.1274C46.7659 52.563 47.2224 52.1064 47.7869 52.1064H68.1568C68.7212 52.1064 69.1777 52.563 69.1777 53.1274Z" stroke="black" stroke-miterlimit="10"/>
</g>
<path id="Vector_4" d="M42.0769 29.9718L37.088 35.0001L32.0991 29.9718C31.1779 29.0433 31.1779 27.536 32.0991 26.6055C33.0203 25.6771 34.5158 25.6771 35.439 26.6055L37.09 28.2696L38.741 26.6055C39.6622 25.6771 41.1577 25.6771 42.0809 26.6055C43.0021 27.534 43.0021 29.0413 42.0809 29.9718H42.0769Z" fill="#010932"/>
<path id="Vector_5" d="M25.7266 39.5454H47.9993" stroke="#010932" stroke-miterlimit="10" stroke-linecap="round"/>
<path id="Vector_6" d="M31.1816 41.3635H42.9998" stroke="#010932" stroke-miterlimit="10" stroke-linecap="round"/>
<path id="Vector_7" d="M28.4551 48.6365H33.2278" stroke="#010932" stroke-miterlimit="10" stroke-linecap="round"/>
<path id="Vector_8" d="M40.5 48.6365H45.2727" stroke="#010932" stroke-miterlimit="10" stroke-linecap="round"/>
</g>
</svg>
