<svg width="76" height="75" viewBox="0 0 76 75" fill="none" xmlns="http://www.w3.org/2000/svg">
<g id="healthicons:ui-user-profile">
<g id="Group">
<path id="Vector" d="M33.7871 22.7657H16.0963C15.5318 22.7657 15.0753 23.2222 15.0753 23.7867V51.0855C15.0753 51.65 14.6187 52.1065 14.0543 52.1065H12.0932C11.5288 52.1065 11.0723 51.65 11.0723 51.0855V19.3313C11.0723 18.7668 11.5288 18.3103 12.0932 18.3103H36.0553" stroke="black" stroke-miterlimit="10"/>
<path id="Vector_2" d="M39.334 18.3103H64.0534C64.6179 18.3103 65.0744 18.7668 65.0744 19.3313V51.0855C65.0744 51.65 64.6179 52.1065 64.0534 52.1065H61.7998C61.2353 52.1065 60.7788 51.65 60.7788 51.0855V23.7867C60.7788 23.2222 60.3223 22.7657 59.7578 22.7657H41.6042" stroke="black" stroke-miterlimit="10"/>
<path id="Vector_3" d="M69.1777 53.1274V57.726C69.1777 58.2905 68.7212 58.747 68.1568 58.747H7.69872C7.13427 58.747 6.67773 58.2905 6.67773 57.726V53.1274C6.67773 52.563 7.13427 52.1064 7.69872 52.1064H27.0684C27.6328 52.1064 28.0893 52.563 28.0893 53.1274C28.0893 53.6919 28.5459 54.1484 29.1103 54.1484H45.7449C46.3093 54.1484 46.7659 53.6919 46.7659 53.1274C46.7659 52.563 47.2224 52.1064 47.7869 52.1064H68.1568C68.7212 52.1064 69.1777 52.563 69.1777 53.1274Z" stroke="black" stroke-miterlimit="10"/>
<g id="Group_2">
<path id="Vector_4" d="M40.4575 42.5005H34.9355C33.792 40.2386 33.0512 38.0597 32.6258 35.9907C30.2061 24.2992 37.6975 16.0857 37.6975 16.0857C37.6975 16.0857 48.0754 27.4639 40.4596 42.5005H40.4575Z" stroke="black" stroke-miterlimit="10"/>
<path id="Vector_5" d="M34.936 42.5004L28.8848 45.6671L29.1338 38.79L32.6263 35.9885C33.0517 38.0575 33.7925 40.2364 34.936 42.4983V42.5004Z" stroke="black" stroke-miterlimit="10"/>
<path id="Vector_6" d="M40.457 42.5004L46.5082 45.6671L46.2592 38.79L42.7667 35.9885C42.3413 38.0575 41.6005 40.2364 40.457 42.4983V42.5004Z" stroke="black" stroke-miterlimit="10"/>
<path id="Vector_7" d="M39.6855 44.9741V49.0311" stroke="black" stroke-miterlimit="10" stroke-linecap="round"/>
<path id="Vector_8" d="M35.6543 44.9741V49.0311" stroke="black" stroke-miterlimit="10" stroke-linecap="round"/>
<path id="Vector_9" d="M37.6973 44.7021V51.1829" stroke="black" stroke-miterlimit="10" stroke-linecap="round"/>
</g>
<path id="Vector_10" d="M37.6969 30.614C38.8304 30.614 39.7492 29.6951 39.7492 28.5616C39.7492 27.4281 38.8304 26.5093 37.6969 26.5093C36.5634 26.5093 35.6445 27.4281 35.6445 28.5616C35.6445 29.6951 36.5634 30.614 37.6969 30.614Z" stroke="black" stroke-miterlimit="10"/>
</g>
</g>
</svg>
