<svg width="76" height="75" viewBox="0 0 76 75" fill="none" xmlns="http://www.w3.org/2000/svg">
<g id="healthicons:ui-user-profile">
<g id="Group 174">
<path id="Vector" d="M55.2065 32.6644C55.1656 29.6103 54.2735 26.7489 52.7447 24.2958C49.6872 19.3667 44.0759 16.0676 37.6645 16.0676C31.2531 16.0676 25.7951 19.2818 22.7069 24.0998C21.1066 26.5986 20.1668 29.5254 20.1225 32.6644C20.1191 32.7428 20.1191 32.8212 20.1191 32.8996C20.1191 42.1959 27.9776 49.7316 37.6645 49.7316C41.8457 49.7316 45.6864 48.327 48.6997 45.985L51.3113 43.4763C53.7492 40.5855 55.2099 36.9075 55.2099 32.8996C55.2099 32.8212 55.2099 32.7428 55.2065 32.6644ZM37.6645 21.3821C39.7823 21.3821 41.4984 23.0251 41.4984 25.0569C41.4984 27.0886 39.7823 28.7316 37.6645 28.7316C35.5467 28.7316 33.834 27.0853 33.834 25.0569C33.834 23.0284 35.5501 21.3821 37.6645 21.3821ZM25.9066 40.9971C25.9066 35.4507 31.0661 31.0102 36.8441 31.0102C42.6222 31.0102 48.1277 35.4539 48.1277 40.9971H27.1945H25.9066Z" stroke="#010932" stroke-width="1.5" stroke-miterlimit="10"/>
<path id="Vector_2" d="M51.3127 43.4761C50.5364 44.3972 49.6613 45.24 48.7012 45.9847L51.3127 43.4761Z" stroke="#010932" stroke-width="1.5" stroke-miterlimit="10"/>
<g id="Group">
<path id="Vector_3" d="M17.1517 20.3433C19.2785 20.3433 21.0026 18.6893 21.0026 16.6489C21.0026 14.6086 19.2785 12.9546 17.1517 12.9546C15.0249 12.9546 13.3008 14.6086 13.3008 16.6489C13.3008 18.6893 15.0249 20.3433 17.1517 20.3433Z" stroke="#010932" stroke-width="1.5" stroke-miterlimit="10"/>
<path id="Vector_4" d="M22.7078 24.0996C21.1075 26.5984 20.1677 29.5251 20.1235 32.6642H6.63672C6.63672 27.0916 11.3423 22.5774 17.151 22.5774C19.1905 22.5774 21.0939 23.136 22.7078 24.0996Z" stroke="#010932" stroke-width="1.5" stroke-miterlimit="10"/>
</g>
<g id="Group_2">
<path id="Vector_5" d="M58.6205 20.3433C60.7473 20.3433 62.4714 18.6893 62.4714 16.6489C62.4714 14.6086 60.7473 12.9546 58.6205 12.9546C56.4936 12.9546 54.7695 14.6086 54.7695 16.6489C54.7695 18.6893 56.4936 20.3433 58.6205 20.3433Z" stroke="#010932" stroke-width="1.5" stroke-miterlimit="10"/>
<path id="Vector_6" d="M69.1372 32.6642H55.2078C55.167 29.61 54.2749 26.7486 52.7461 24.2955C54.4247 23.2111 56.4438 22.5774 58.6195 22.5774C64.4282 22.5774 69.1372 27.0916 69.1372 32.6642Z" stroke="#010932" stroke-width="1.5" stroke-miterlimit="10"/>
</g>
<path id="Vector_7" d="M66.0596 60.7621C64.9428 61.8335 63.1314 61.8335 62.0146 60.7621L47.6562 46.9876L48.7016 45.9848L51.3131 43.4761L51.7013 43.1038L66.063 56.8783C67.1799 57.953 67.1798 59.6907 66.0596 60.7621Z" stroke="#010932" stroke-width="1.5" stroke-miterlimit="10"/>
</g>
</g>
</svg>
