<svg width="76" height="75" viewBox="0 0 76 75" fill="none" xmlns="http://www.w3.org/2000/svg">
<g id="healthicons:ui-user-profile">
<g id="Group">
<path id="Vector" d="M33.7871 22.7657H16.0963C15.5318 22.7657 15.0753 23.2222 15.0753 23.7867V51.0855C15.0753 51.65 14.6187 52.1065 14.0543 52.1065H12.0932C11.5288 52.1065 11.0723 51.65 11.0723 51.0855V19.3313C11.0723 18.7668 11.5288 18.3103 12.0932 18.3103H36.0553" stroke="#010932" stroke-miterlimit="10"/>
<path id="Vector_2" d="M35.9554 18.3103H64.0544C64.6189 18.3103 65.0754 18.7668 65.0754 19.3313V51.0855C65.0754 51.65 64.6189 52.1065 64.0544 52.1065H61.8008C61.2364 52.1065 60.7798 51.65 60.7798 51.0855V23.7867C60.7798 23.2222 60.3233 22.7657 59.7588 22.7657H33.3418" stroke="#010932" stroke-miterlimit="10"/>
<path id="Vector_3" d="M69.1777 53.1274V57.726C69.1777 58.2905 68.7212 58.747 68.1568 58.747H7.69872C7.13427 58.747 6.67773 58.2905 6.67773 57.726V53.1274C6.67773 52.563 7.13427 52.1064 7.69872 52.1064H27.0684C27.6328 52.1064 28.0893 52.563 28.0893 53.1274C28.0893 53.6919 28.5459 54.1484 29.1103 54.1484H45.7449C46.3093 54.1484 46.7659 53.6919 46.7659 53.1274C46.7659 52.563 47.2224 52.1064 47.7869 52.1064H68.1568C68.7212 52.1064 69.1777 52.563 69.1777 53.1274Z" stroke="#010932" stroke-miterlimit="10"/>
</g>
<path id="Vector_4" d="M25.7266 46H47.9993" stroke="#010932" stroke-miterlimit="10" stroke-linecap="round"/>
<path id="Vector_5" d="M31.1816 47.8181H42.9998" stroke="#010932" stroke-miterlimit="10" stroke-linecap="round"/>
<path id="Ellipse 31" d="M40.5286 30.5366C40.5286 32.284 39.1121 33.7005 37.3648 33.7005C35.6174 33.7005 34.2009 32.284 34.2009 30.5366C34.2009 28.7893 35.6174 27.3728 37.3648 27.3728C39.1121 27.3728 40.5286 28.7893 40.5286 30.5366Z" stroke="#010932" stroke-width="0.745606"/>
<g id="Ellipse 30">
<mask id="path-7-inside-1_1060_4849" fill="white">
<path d="M44.2305 41.3545C44.2305 39.5337 43.5072 37.7875 42.2197 36.5C40.9322 35.2126 39.186 34.4893 37.3652 34.4893C35.5445 34.4893 33.7983 35.2126 32.5108 36.5C31.2233 37.7875 30.5 39.5337 30.5 41.3545L37.3652 41.3545H44.2305Z"/>
</mask>
<path d="M44.2305 41.3545C44.2305 39.5337 43.5072 37.7875 42.2197 36.5C40.9322 35.2126 39.186 34.4893 37.3652 34.4893C35.5445 34.4893 33.7983 35.2126 32.5108 36.5C31.2233 37.7875 30.5 39.5337 30.5 41.3545L37.3652 41.3545H44.2305Z" stroke="#010932" stroke-width="1.49121" mask="url(#path-7-inside-1_1060_4849)"/>
</g>
<path id="Vector 8" d="M44.6465 30.2454V35.3215" stroke="#010932" stroke-width="0.745606"/>
<path id="Vector 9" d="M47.1426 32.7419L42.0665 32.7419" stroke="#010932" stroke-width="0.745606"/>
</g>
</svg>
