<svg width="155" height="174" viewBox="0 0 155 174" fill="none" xmlns="http://www.w3.org/2000/svg">
<g filter="url(#filter0_dddd_780_192)">
<rect x="10" y="3" width="132" height="132" rx="15" fill="#F5F5FF"/>
<path d="M96.3547 93.45V100.638C96.3547 105.325 92.5552 109.125 87.8677 109.125H59.9977C55.3102 109.125 51.5107 105.325 51.5107 100.638V38.8725C51.5107 34.185 55.3102 30.3855 59.9977 30.3855H87.867C92.5545 30.3855 96.354 34.185 96.354 38.8725V55.395" stroke="#4A5061" stroke-width="0.75" stroke-miterlimit="10" stroke-linecap="round" stroke-linejoin="round"/>
<path d="M51.5107 39V38.8725C51.5107 34.185 55.3102 30.3855 59.9977 30.3855H87.867C92.5545 30.3855 96.354 34.185 96.354 38.8725V39H51.5107Z" stroke="#4A5061" stroke-width="0.75" stroke-miterlimit="10" stroke-linecap="round" stroke-linejoin="round"/>
<path opacity="0.3" d="M51.3867 39V38.8725C51.3867 34.185 55.1862 30.3855 59.8737 30.3855H87.743C92.4305 30.3855 96.23 34.185 96.23 38.8725V39H51.3867Z" fill="#1B2268"/>
<path d="M96.3547 100.511V100.639C96.3547 105.326 92.5552 109.126 87.8677 109.126H59.9977C55.3102 109.126 51.5107 105.326 51.5107 100.639V100.511H96.3547Z" stroke="#4A5061" stroke-width="0.75" stroke-miterlimit="10" stroke-linecap="round" stroke-linejoin="round"/>
<path opacity="0.3" d="M96.3547 100.511V100.639C96.3547 105.326 92.5552 109.126 87.8677 109.126H59.9977C55.3102 109.126 51.5107 105.326 51.5107 100.639V100.511H96.3547Z" fill="#1B2268"/>
<path d="M69.957 105.281H77.9085" stroke="#4A5061" stroke-width="0.75" stroke-miterlimit="10" stroke-linecap="round" stroke-linejoin="round"/>
<path d="M69.957 34.6926H77.9085" stroke="#4A5061" stroke-width="0.75" stroke-miterlimit="10" stroke-linecap="round" stroke-linejoin="round"/>
<path d="M29.1465 52.8937V61.2412" stroke="#4A5061" stroke-width="0.75" stroke-miterlimit="10" stroke-linecap="round" stroke-linejoin="round"/>
<path d="M33.8179 57.0675H24.4736" stroke="#4A5061" stroke-width="0.75" stroke-miterlimit="10" stroke-linecap="round" stroke-linejoin="round"/>
<path d="M39.3945 73.3613V78.9555" stroke="#4A5061" stroke-width="0.75" stroke-miterlimit="10" stroke-linecap="round" stroke-linejoin="round"/>
<path d="M42.1929 76.1581H36.5986" stroke="#4A5061" stroke-width="0.75" stroke-miterlimit="10" stroke-linecap="round" stroke-linejoin="round"/>
<path d="M123.658 70.035L126.613 68.7533L123.592 61.788L120.193 63.2618C118.936 61.5998 117.589 60.3615 116.124 59.3828L117.429 55.7565L110.254 52.8585L108.894 56.2808C106.792 55.9343 104.51 55.9545 102.468 56.3333L101.157 53.3115L94.6562 56.1308L95.9672 59.1525C93.3662 60.7875 92.3754 62.1405 91.1912 63.9128L87.5679 62.6063L84.6714 69.7808L88.2399 71.4758C87.9534 73.2135 87.8994 75.0608 88.2542 77.1135L84.5859 78.7043L87.6069 85.6695L90.8319 84.2708C92.1962 86.4375 93.9024 88.0253 95.9739 89.4098L94.5444 92.7488L101.657 95.5028L103.316 91.866C105.418 92.2125 107.069 92.3805 110.04 91.599L111.574 95.1353L118.075 92.316L116.541 88.7798C118.214 87.5475 119.804 85.9343 120.988 84.1628L124.446 85.5405L127.26 78.402L123.899 77.2988C124.305 74.8403 124.308 72.5115 123.658 70.035ZM110.303 84.573C104.529 87.0773 97.8189 84.4268 95.3147 78.6525C92.8104 72.8783 95.4609 66.168 101.235 63.6638C107.009 61.1595 113.72 63.81 116.224 69.5843C118.728 75.3578 116.078 82.0688 110.303 84.573Z" stroke="#4A5061" stroke-width="0.75" stroke-miterlimit="10" stroke-linecap="round" stroke-linejoin="round"/>
<path opacity="0.3" d="M123.741 70.0973L126.696 68.8155L123.675 61.8503L120.276 63.324C119.019 61.662 117.672 60.4238 116.207 59.445L117.512 55.8188L110.337 52.9208L108.977 56.343C106.875 55.9965 104.593 56.0168 102.551 56.3955L101.24 53.3738L94.7392 56.193L96.0502 59.2148C93.4492 60.8498 92.4584 62.2028 91.2742 63.975L87.6509 62.6685L84.7544 69.843L88.3229 71.538C88.0364 73.2758 87.9824 75.123 88.3372 77.1758L84.6689 78.7665L87.6899 85.7318L90.9149 84.333C92.2792 86.4998 93.9854 88.0875 96.0569 89.472L94.6274 92.811L101.74 95.565L103.399 91.9283C105.501 92.2748 107.152 92.4428 110.123 91.6613L111.657 95.1975L118.158 92.3783L116.624 88.842C118.297 87.6098 119.887 85.9965 121.071 84.225L124.529 85.6028L127.343 78.4643L123.982 77.361C124.387 74.9025 124.39 72.5738 123.741 70.0973ZM110.303 84.573C104.529 87.0773 97.8187 84.4268 95.3144 78.6525C92.8102 72.8783 95.4607 66.168 101.235 63.6638C107.009 61.1595 113.719 63.81 116.224 69.5843C118.728 75.3578 116.077 82.0688 110.303 84.573Z" fill="#1B2268"/>
<path d="M57.5195 48.4162H84.5195" stroke="#4A5061" stroke-width="0.75" stroke-miterlimit="10" stroke-linecap="round" stroke-linejoin="round"/>
<path d="M57.5195 56.6662H76.2695" stroke="#4A5061" stroke-width="0.75" stroke-miterlimit="10" stroke-linecap="round" stroke-linejoin="round"/>
<path d="M116.084 36.3427V44.6902" stroke="#4A5061" stroke-width="0.75" stroke-miterlimit="10" stroke-linecap="round" stroke-linejoin="round"/>
<path d="M120.755 40.5165H111.411" stroke="#4A5061" stroke-width="0.75" stroke-miterlimit="10" stroke-linecap="round" stroke-linejoin="round"/>
</g>
<defs>
<filter id="filter0_dddd_780_192" x="0.25" y="0.75" width="154.5" height="173.25" filterUnits="userSpaceOnUse" color-interpolation-filters="sRGB">
<feFlood flood-opacity="0" result="BackgroundImageFix"/>
<feColorMatrix in="SourceAlpha" type="matrix" values="0 0 0 0 0 0 0 0 0 0 0 0 0 0 0 0 0 0 127 0" result="hardAlpha"/>
<feOffset dy="1.5"/>
<feGaussianBlur stdDeviation="1.875"/>
<feColorMatrix type="matrix" values="0 0 0 0 0.0470588 0 0 0 0 0.0627451 0 0 0 0 0.27451 0 0 0 0.1 0"/>
<feBlend mode="normal" in2="BackgroundImageFix" result="effect1_dropShadow_780_192"/>
<feColorMatrix in="SourceAlpha" type="matrix" values="0 0 0 0 0 0 0 0 0 0 0 0 0 0 0 0 0 0 127 0" result="hardAlpha"/>
<feOffset dx="0.75" dy="6.75"/>
<feGaussianBlur stdDeviation="3.375"/>
<feColorMatrix type="matrix" values="0 0 0 0 0.0470588 0 0 0 0 0.0627451 0 0 0 0 0.27451 0 0 0 0.09 0"/>
<feBlend mode="normal" in2="effect1_dropShadow_780_192" result="effect2_dropShadow_780_192"/>
<feColorMatrix in="SourceAlpha" type="matrix" values="0 0 0 0 0 0 0 0 0 0 0 0 0 0 0 0 0 0 127 0" result="hardAlpha"/>
<feOffset dx="0.75" dy="15.75"/>
<feGaussianBlur stdDeviation="4.875"/>
<feColorMatrix type="matrix" values="0 0 0 0 0.0470588 0 0 0 0 0.0627451 0 0 0 0 0.27451 0 0 0 0.05 0"/>
<feBlend mode="normal" in2="effect2_dropShadow_780_192" result="effect3_dropShadow_780_192"/>
<feColorMatrix in="SourceAlpha" type="matrix" values="0 0 0 0 0 0 0 0 0 0 0 0 0 0 0 0 0 0 127 0" result="hardAlpha"/>
<feOffset dx="1.5" dy="27.75"/>
<feGaussianBlur stdDeviation="5.625"/>
<feColorMatrix type="matrix" values="0 0 0 0 0.0470588 0 0 0 0 0.0627451 0 0 0 0 0.27451 0 0 0 0.01 0"/>
<feBlend mode="normal" in2="effect3_dropShadow_780_192" result="effect4_dropShadow_780_192"/>
<feBlend mode="normal" in="SourceGraphic" in2="effect4_dropShadow_780_192" result="shape"/>
</filter>
</defs>
</svg>
