<svg width="80" height="80" viewBox="0 0 80 80" fill="none" xmlns="http://www.w3.org/2000/svg">
<g id="8003166_web_website_browser_page_wireframe_icon 1">
<g id="Layer 23">
<path id="Vector" d="M70 8.75H10C8.3424 8.75 6.75269 9.40848 5.58058 10.5806C4.40848 11.7527 3.75 13.3424 3.75 15V65C3.75 66.6576 4.40848 68.2473 5.58058 69.4194C6.75269 70.5915 8.3424 71.25 10 71.25H70C71.6576 71.25 73.2473 70.5915 74.4194 69.4194C75.5915 68.2473 76.25 66.6576 76.25 65V15C76.25 13.3424 75.5915 11.7527 74.4194 10.5806C73.2473 9.40848 71.6576 8.75 70 8.75ZM73.75 65C73.75 65.9946 73.3549 66.9484 72.6516 67.6516C71.9484 68.3549 70.9946 68.75 70 68.75H10C9.00544 68.75 8.05161 68.3549 7.34835 67.6516C6.64509 66.9484 6.25 65.9946 6.25 65V21.25H73.75V65ZM6.25 18.75V15C6.25 14.0054 6.64509 13.0516 7.34835 12.3483C8.05161 11.6451 9.00544 11.25 10 11.25H70C70.9946 11.25 71.9484 11.6451 72.6516 12.3483C73.3549 13.0516 73.75 14.0054 73.75 15V18.75H6.25ZM68.75 15C68.75 15.2472 68.6767 15.4889 68.5393 15.6945C68.402 15.9 68.2068 16.0602 67.9784 16.1548C67.7499 16.2495 67.4986 16.2742 67.2561 16.226C67.0137 16.1778 66.7909 16.0587 66.6161 15.8839C66.4413 15.7091 66.3223 15.4863 66.274 15.2439C66.2258 15.0014 66.2505 14.7501 66.3452 14.5216C66.4398 14.2932 66.6 14.098 66.8055 13.9607C67.0111 13.8233 67.2528 13.75 67.5 13.75C67.8315 13.75 68.1495 13.8817 68.3839 14.1161C68.6183 14.3505 68.75 14.6685 68.75 15ZM65 15C65 15.2472 64.9267 15.4889 64.7893 15.6945C64.652 15.9 64.4568 16.0602 64.2284 16.1548C63.9999 16.2495 63.7486 16.2742 63.5061 16.226C63.2637 16.1778 63.0409 16.0587 62.8661 15.8839C62.6913 15.7091 62.5723 15.4863 62.524 15.2439C62.4758 15.0014 62.5005 14.7501 62.5952 14.5216C62.6898 14.2932 62.85 14.098 63.0555 13.9607C63.2611 13.8233 63.5028 13.75 63.75 13.75C64.0815 13.75 64.3995 13.8817 64.6339 14.1161C64.8683 14.3505 65 14.6685 65 15ZM61.25 15C61.25 15.2472 61.1767 15.4889 61.0393 15.6945C60.902 15.9 60.7068 16.0602 60.4784 16.1548C60.2499 16.2495 59.9986 16.2742 59.7561 16.226C59.5137 16.1778 59.2909 16.0587 59.1161 15.8839C58.9413 15.7091 58.8223 15.4863 58.774 15.2439C58.7258 15.0014 58.7505 14.7501 58.8452 14.5216C58.9398 14.2932 59.1 14.098 59.3055 13.9607C59.5111 13.8233 59.7528 13.75 60 13.75C60.3315 13.75 60.6495 13.8817 60.8839 14.1161C61.1183 14.3505 61.25 14.6685 61.25 15ZM12.5 36.25H22.5C22.8315 36.25 23.1495 36.1183 23.3839 35.8839C23.6183 35.6495 23.75 35.3315 23.75 35V25C23.75 24.6685 23.6183 24.3505 23.3839 24.1161C23.1495 23.8817 22.8315 23.75 22.5 23.75H12.5C12.1685 23.75 11.8505 23.8817 11.6161 24.1161C11.3817 24.3505 11.25 24.6685 11.25 25V35C11.25 35.3315 11.3817 35.6495 11.6161 35.8839C11.8505 36.1183 12.1685 36.25 12.5 36.25ZM13.75 26.25H21.25V33.75H13.75V26.25ZM12.5 51.25H22.5C22.8315 51.25 23.1495 51.1183 23.3839 50.8839C23.6183 50.6495 23.75 50.3315 23.75 50V40C23.75 39.6685 23.6183 39.3505 23.3839 39.1161C23.1495 38.8817 22.8315 38.75 22.5 38.75H12.5C12.1685 38.75 11.8505 38.8817 11.6161 39.1161C11.3817 39.3505 11.25 39.6685 11.25 40V50C11.25 50.3315 11.3817 50.6495 11.6161 50.8839C11.8505 51.1183 12.1685 51.25 12.5 51.25ZM13.75 41.25H21.25V48.75H13.75V41.25ZM12.5 66.25H22.5C22.8315 66.25 23.1495 66.1183 23.3839 65.8839C23.6183 65.6495 23.75 65.3315 23.75 65V55C23.75 54.6685 23.6183 54.3505 23.3839 54.1161C23.1495 53.8817 22.8315 53.75 22.5 53.75H12.5C12.1685 53.75 11.8505 53.8817 11.6161 54.1161C11.3817 54.3505 11.25 54.6685 11.25 55V65C11.25 65.3315 11.3817 65.6495 11.6161 65.8839C11.8505 66.1183 12.1685 66.25 12.5 66.25ZM13.75 56.25H21.25V63.75H13.75V56.25ZM26.25 27.5C26.25 27.1685 26.3817 26.8505 26.6161 26.6161C26.8505 26.3817 27.1685 26.25 27.5 26.25H67.5C67.8315 26.25 68.1495 26.3817 68.3839 26.6161C68.6183 26.8505 68.75 27.1685 68.75 27.5C68.75 27.8315 68.6183 28.1495 68.3839 28.3839C68.1495 28.6183 67.8315 28.75 67.5 28.75H27.5C27.1685 28.75 26.8505 28.6183 26.6161 28.3839C26.3817 28.1495 26.25 27.8315 26.25 27.5ZM26.25 32.5C26.25 32.1685 26.3817 31.8505 26.6161 31.6161C26.8505 31.3817 27.1685 31.25 27.5 31.25H67.5C67.8315 31.25 68.1495 31.3817 68.3839 31.6161C68.6183 31.8505 68.75 32.1685 68.75 32.5C68.75 32.8315 68.6183 33.1495 68.3839 33.3839C68.1495 33.6183 67.8315 33.75 67.5 33.75H27.5C27.1685 33.75 26.8505 33.6183 26.6161 33.3839C26.3817 33.1495 26.25 32.8315 26.25 32.5ZM26.25 42.5C26.25 42.1685 26.3817 41.8505 26.6161 41.6161C26.8505 41.3817 27.1685 41.25 27.5 41.25H67.5C67.8315 41.25 68.1495 41.3817 68.3839 41.6161C68.6183 41.8505 68.75 42.1685 68.75 42.5C68.75 42.8315 68.6183 43.1495 68.3839 43.3839C68.1495 43.6183 67.8315 43.75 67.5 43.75H27.5C27.1685 43.75 26.8505 43.6183 26.6161 43.3839C26.3817 43.1495 26.25 42.8315 26.25 42.5ZM26.25 47.5C26.25 47.1685 26.3817 46.8505 26.6161 46.6161C26.8505 46.3817 27.1685 46.25 27.5 46.25H67.5C67.8315 46.25 68.1495 46.3817 68.3839 46.6161C68.6183 46.8505 68.75 47.1685 68.75 47.5C68.75 47.8315 68.6183 48.1495 68.3839 48.3839C68.1495 48.6183 67.8315 48.75 67.5 48.75H27.5C27.1685 48.75 26.8505 48.6183 26.6161 48.3839C26.3817 48.1495 26.25 47.8315 26.25 47.5ZM26.25 57.5C26.25 57.1685 26.3817 56.8505 26.6161 56.6161C26.8505 56.3817 27.1685 56.25 27.5 56.25H67.5C67.8315 56.25 68.1495 56.3817 68.3839 56.6161C68.6183 56.8505 68.75 57.1685 68.75 57.5C68.75 57.8315 68.6183 58.1495 68.3839 58.3839C68.1495 58.6183 67.8315 58.75 67.5 58.75H27.5C27.1685 58.75 26.8505 58.6183 26.6161 58.3839C26.3817 58.1495 26.25 57.8315 26.25 57.5ZM26.25 62.5C26.25 62.1685 26.3817 61.8505 26.6161 61.6161C26.8505 61.3817 27.1685 61.25 27.5 61.25H67.5C67.8315 61.25 68.1495 61.3817 68.3839 61.6161C68.6183 61.8505 68.75 62.1685 68.75 62.5C68.75 62.8315 68.6183 63.1495 68.3839 63.3839C68.1495 63.6183 67.8315 63.75 67.5 63.75H27.5C27.1685 63.75 26.8505 63.6183 26.6161 63.3839C26.3817 63.1495 26.25 62.8315 26.25 62.5Z" fill="#212327"/>
</g>
</g>
</svg>
