<svg width="80" height="80" viewBox="0 0 80 80" fill="none" xmlns="http://www.w3.org/2000/svg">
<g id="8003166_web_website_browser_page_wireframe_icon 2">
<g id="Group 93112">
<path id="Vector" d="M43.9079 61.1634H23.4424L26.5173 50.9307H40.833L43.9079 61.1634Z" stroke="black" stroke-width="1.6" stroke-miterlimit="10"/>
<path id="Vector_2" d="M34.0509 15.3089C34.6623 15.3089 35.158 14.8132 35.158 14.2018C35.158 13.5904 34.6623 13.0947 34.0509 13.0947C33.4395 13.0947 32.9438 13.5904 32.9438 14.2018C32.9438 14.8132 33.4395 15.3089 34.0509 15.3089Z" fill="black"/>
<g id="Group" opacity="0.65">
<path id="Vector_3" d="M22.845 23.6875H14.2275C13.1 23.6875 12.186 24.6015 12.186 25.729V30.8171C12.186 31.9445 13.1 32.8585 14.2275 32.8585H22.845C23.9724 32.8585 24.8864 31.9445 24.8864 30.8171V25.729C24.8864 24.6015 23.9724 23.6875 22.845 23.6875Z" stroke="black" stroke-width="1.6" stroke-miterlimit="10"/>
</g>
<path id="Vector_4" d="M12.5537 37.623H24.457" stroke="black" stroke-width="1.6" stroke-miterlimit="10" stroke-linecap="round"/>
<path id="Vector_5" d="M12.5537 41.8438H24.457" stroke="black" stroke-width="1.6" stroke-miterlimit="10" stroke-linecap="round"/>
<g id="Group 93111">
<path id="Vector_6" d="M54.8758 50.931H8.38547C5.97346 50.931 4 48.8845 4 46.3831V14.1841C4 11.8828 5.97346 10 8.38547 10H61.0111C63.4231 10 65.3966 12.0466 65.3966 14.5479V33.5353" stroke="black" stroke-width="1.6" stroke-miterlimit="10"/>
<path id="Vector_7" d="M4.19922 17.7939H65.8856" stroke="black" stroke-width="1.6" stroke-miterlimit="10"/>
<path id="Vector_8" d="M53.1171 66.2803H15.2559" stroke="black" stroke-width="1.6" stroke-miterlimit="10" stroke-linecap="round"/>
<path id="Vector_9" d="M22.0672 61.1641H45.2824C47.3447 61.1641 49.024 63.4543 49.024 66.2804H18.3257C18.3257 63.4603 20.0005 61.1641 22.0672 61.1641Z" stroke="black" stroke-width="1.6" stroke-miterlimit="10"/>
<g id="Group_2" opacity="0.65">
<path id="Vector_10" d="M44.3338 23.6875H35.7163C34.5888 23.6875 33.6748 24.6015 33.6748 25.729V30.8171C33.6748 31.9445 34.5888 32.8585 35.7163 32.8585H44.3338C45.4612 32.8585 46.3752 31.9445 46.3752 30.8171V25.729C46.3752 24.6015 45.4612 23.6875 44.3338 23.6875Z" stroke="black" stroke-width="1.6" stroke-miterlimit="10"/>
</g>
<path id="Vector_11" d="M34.0425 37.623H45.9458" stroke="black" stroke-width="1.6" stroke-miterlimit="10" stroke-linecap="round"/>
<path id="Vector_12" d="M34.0425 41.8438H45.9458" stroke="black" stroke-width="1.6" stroke-miterlimit="10" stroke-linecap="round"/>
<path id="Vector_13" d="M76.5002 37.6719H55.2842" stroke="black" stroke-width="1.6" stroke-miterlimit="10"/>
<path id="Vector_14" d="M76.2429 64.167H55.0225" stroke="black" stroke-width="1.6" stroke-miterlimit="10"/>
<path id="Vector_15" d="M76.4998 60.9021V68.355C76.4998 69.4089 75.6451 70.2636 74.5912 70.2636H57.1879C56.134 70.2636 55.2793 69.4089 55.2793 68.355V35.4482C55.2793 34.3898 56.134 33.5352 57.1879 33.5352H74.5912C75.6451 33.5352 76.4998 34.3898 76.4998 35.4482V60.9021Z" stroke="black" stroke-width="1.6" stroke-miterlimit="10"/>
<path id="Vector_16" d="M65.8895 68.4177C66.5156 68.4177 67.0232 67.9101 67.0232 67.284C67.0232 66.6579 66.5156 66.1504 65.8895 66.1504C65.2634 66.1504 64.7559 66.6579 64.7559 67.284C64.7559 67.9101 65.2634 68.4177 65.8895 68.4177Z" stroke="black" stroke-width="0.5" stroke-miterlimit="10"/>
<path id="Vector_17" d="M63.7422 35.71H68.0421" stroke="black" stroke-width="0.5" stroke-miterlimit="10" stroke-linecap="round"/>
<path id="Vector_18" d="M58.7335 46.7988H73.3336C73.8203 46.7988 74.2148 46.4043 74.2148 45.9176V42.7824C74.2148 42.2957 73.8203 41.9011 73.3336 41.9011H58.7335C58.2468 41.9011 57.8522 42.2957 57.8522 42.7824V45.9176C57.8522 46.4043 58.2468 46.7988 58.7335 46.7988Z" stroke="black" stroke-width="0.5" stroke-miterlimit="10"/>
<path id="Vector_19" d="M58.7335 60.3936H73.3336C73.8203 60.3936 74.2148 59.999 74.2148 59.5123V56.3771C74.2148 55.8904 73.8203 55.4958 73.3336 55.4958H58.7335C58.2468 55.4958 57.8522 55.8904 57.8522 56.3771V59.5123C57.8522 59.999 58.2468 60.3936 58.7335 60.3936Z" stroke="black" stroke-width="0.5" stroke-miterlimit="10"/>
<path id="Vector_20" d="M58.3882 49.3799H73.9758" stroke="black" stroke-width="0.5" stroke-miterlimit="10" stroke-linecap="round"/>
<path id="Vector_21" d="M58.3882 52.2725H73.9758" stroke="black" stroke-width="0.5" stroke-miterlimit="10" stroke-linecap="round"/>
</g>
</g>
</g>
</svg>
