<svg width="80" height="80" viewBox="0 0 80 80" fill="none" xmlns="http://www.w3.org/2000/svg">
<g id="fluent:person-feedback-20-regular">
<g id="Group">
<g id="Group_2">
<path id="Vector" d="M54.464 43.1815C64.149 43.1815 72.0002 35.4003 72.0002 25.8017C72.0002 16.2031 64.149 8.42188 54.464 8.42188C44.779 8.42188 36.9277 16.2031 36.9277 25.8017C36.9277 35.4003 44.779 43.1815 54.464 43.1815Z" stroke="black" stroke-width="2.5" stroke-miterlimit="10"/>
<path id="Vector_2" d="M45.7349 25.1339L52.2995 31.1981L63.1895 20.4053" stroke="black" stroke-width="2.5" stroke-miterlimit="10" stroke-linecap="round"/>
</g>
<g id="Group_3">
<path id="Vector_3" d="M19.6434 44.876H10.0617C8.92305 44.876 8 46.1314 8 47.68V69.6183C8 71.1669 8.92305 72.4223 10.0617 72.4223H19.6434C20.782 72.4223 21.7051 71.1669 21.7051 69.6183V47.68C21.7051 46.1314 20.782 44.876 19.6434 44.876Z" stroke="black" stroke-width="2.5" stroke-miterlimit="10"/>
<path id="Vector_4" d="M21.7051 51.4087H23.1901C23.511 51.4087 23.8131 51.2525 24.0239 50.9828C25.0496 49.6732 27.9316 46.5074 32.4749 46.0247C38.2578 45.4107 42.2284 49.6128 43.3737 51.0076C43.5845 51.2631 43.8771 51.4122 44.1854 51.4122H50.0186C53.209 51.4122 55.7921 54.3296 55.7921 57.9248" stroke="black" stroke-width="2.5" stroke-miterlimit="10"/>
<path id="Vector_5" d="M41.573 58.6236C41.8734 58.55 52.2407 58.6096 54.445 58.6236C54.7139 58.6236 54.9795 58.5535 55.2167 58.4132L65.0558 53.0021C66.8522 51.9465 69.0756 52.5602 70.2142 54.4224C71.5741 56.6422 70.8467 59.6792 68.6771 60.8645C62.9336 63.9961 56.5957 67.2645 50.8143 70.2875C49.4891 70.9818 48.183 70.3892 46.8357 70.049C45.1689 69.6247 43.5054 69.1863 41.8418 68.7515C38.5115 67.8818 35.1781 67.0296 31.8193 66.3247C28.4384 65.6163 25.1366 65.7215 21.7051 65.7215" stroke="black" stroke-width="2.5" stroke-miterlimit="10" stroke-linecap="round"/>
</g>
</g>
</g>
</svg>
