<svg width="50" height="50" viewBox="0 0 50 50" fill="none" xmlns="http://www.w3.org/2000/svg">
<g id="2315596_artistic_bulb_creative_experimental_idea_icon 1">
<path id="Vector" d="M36 33.0392L38.7169 36.9747C38.7169 36.9747 39.195 37.103 39.484 36.7818L40.9372 35.3129C40.9372 35.3129 41.1292 35.0952 40.8419 34.5868L37.223 32.0699C37.2222 32.0706 36.0481 31.6111 36 33.0392Z" fill="#1B2268"/>
<path id="Vector_2" d="M41.3382 21.8378L45.5827 23C45.5827 23 45.9785 22.6968 45.9651 22.1555L46 19.5682C46 19.5682 45.9893 19.2052 45.4819 19L41.5339 19.9007C41.5342 19.9007 40.4761 20.5141 41.3382 21.8378Z" fill="#1B2268"/>
<path id="Vector_3" d="M37.0579 10L40.978 7.24004C40.978 7.24004 41.0998 6.7613 40.7701 6.48028L39.2689 5.05889C39.2689 5.05889 39.0468 4.87154 38.5396 5.16517L36.0653 8.80059C36.0644 8.80043 35.6209 9.97511 37.0579 10Z" fill="#1B2268"/>
<path id="Vector_4" d="M27.0338 4.63777L28 0.362313C28 0.362313 27.679 -0.0255935 27.1378 0.00134037L24.5446 0.0292991C24.5446 0.0292991 24.1817 0.0484748 24 0.560071L25.0843 4.48831C25.0843 4.48831 25.7481 5.53229 27.0338 4.63777Z" fill="#1B2268"/>
<path id="Vector_5" d="M15 8.97777L12.3202 5.02833C12.3202 5.02833 11.8403 4.89387 11.5466 5.21082L10.0663 6.65176C10.0663 6.65176 9.86985 6.86553 10.1533 7.37433L13.7586 9.92443C13.7586 9.92443 14.933 10.397 15 8.97777Z" fill="#1B2268"/>
<path id="Vector_6" d="M10.5611 19.9379L5.43147 19C5.43147 19 4.96756 19.3243 5.00181 19.8654L5.04539 22.4589C5.04539 22.4589 5.07085 22.8217 5.68531 23L10.3915 21.8871C10.3915 21.8871 11.6394 21.2178 10.5611 19.9379Z" fill="#1B2268"/>
<path id="Vector_7" d="M13.9746 32L10.0278 34.6853C10.0278 34.6853 9.89434 35.1657 10.212 35.4591L11.656 36.9344C11.656 36.9344 11.8719 37.1297 12.3801 36.8464L14.9256 33.2393C14.9256 33.2393 15.3953 32.0645 13.9746 32Z" fill="#1B2268"/>
<path id="Vector_8" d="M18.0266 39.4292L18.8589 39H32.1106L32.7779 39.4292C32.7779 39.4292 34.4095 39.6549 33.8905 41.4127C33.8905 41.4127 33.734 42.0373 32.9766 42.1628L32.992 42.6001C32.992 42.6001 34.1035 42.9891 33.9922 44.4422C33.9922 44.4422 33.7843 45.3941 32.7122 45.4418C32.7122 45.4418 31.6417 47.457 28.6253 47.9248C28.6253 47.9248 28.3951 49.9344 25.3125 49.999C25.3125 49.999 23.0217 50.1108 22.3291 47.9394C22.3291 47.9394 20.2358 47.7837 18.1918 45.4578C18.1918 45.4578 16.9726 45.2074 17.0057 43.8329C17.0057 43.8329 16.9892 43.0054 17.9446 42.6296V42.1931C17.9446 42.1931 16.692 41.6782 17.0717 40.3344C17.0708 40.3353 17.2682 39.5701 18.0266 39.4292Z" fill="#1B2268"/>
<path id="Vector_9" d="M22.3325 35.968C22.3325 35.968 22.16 28.2995 20.5928 24.081L19 18.6344L23.1145 19.9601L25.4797 18L27.8208 19.8014L32 18.7752C32 18.7752 29.9674 25.3665 29.3349 27.2663C29.3349 27.2663 28.4147 32.5316 28.3799 36L22.3325 35.968Z" fill="#1B2268"/>
<path id="Vector_10" d="M20.9278 35.9624H19.4012C19.4012 35.9624 18.8969 36.128 18.6448 35.214C18.6448 35.214 18.981 32.6938 17.0762 30.6442C17.0762 30.6442 15.1993 27.5707 14.8072 27.1553C14.8072 27.1553 8.47632 16.8248 19.5133 8.68226C19.5133 8.68226 25.732 4.86044 32.2309 8.73776C32.2309 8.73776 37.7354 10.9118 38.8279 18.1403C38.8279 18.1403 39.9203 24.2888 36.6009 27.9446C36.6009 27.9446 33.3871 32.1664 33.2922 35.0407C33.2922 35.0407 33.2537 35.7885 32.4273 36H30.844C30.844 36 32.5251 30.1877 35.3823 25.6595C35.3823 25.6595 38.3939 20.9781 35.4805 15.6605C35.4805 15.6605 31.6708 6.02249 20.5778 10.8415C20.5778 10.8415 14.3626 14.1115 15.5094 22.7792C15.5094 22.7792 16.6 26.5727 18.8971 29.1208C18.8971 29.1208 20.5496 31.4488 20.9278 35.9624Z" fill="#1B2268"/>
</g>
</svg>
