<svg width="40" height="40" viewBox="0 0 40 40" fill="none" xmlns="http://www.w3.org/2000/svg">
<g id="idea-svgrepo-com 2">
<g id="Group">
<g id="Group_2">
<g id="Group_3">
<path id="Vector" d="M22.746 31.173H17.208C16.703 31.173 16.296 30.763 16.296 30.261V29.62C16.302 29.069 16.275 28.682 16.217 28.466C15.906 27.327 15.083 26.372 14.286 25.446C14.023 25.143 13.775 24.854 13.547 24.563C12.4 23.104 11.79 21.356 11.79 19.502C11.79 14.976 15.474 11.295 20 11.295C24.525 11.295 28.208 14.976 28.208 19.502C28.208 21.357 27.601 23.107 26.451 24.565C26.25 24.823 26.018 25.093 25.776 25.378C24.96 26.338 24.049 27.409 23.735 28.54C23.68 28.742 23.653 29.105 23.657 29.613V30.259C23.657 30.763 23.25 31.173 22.746 31.173ZM18.122 29.347H21.834C21.844 28.637 21.913 28.287 21.976 28.059C22.399 26.536 23.447 25.299 24.372 24.213C24.615 23.927 24.828 23.677 25.017 23.439C25.91 22.303 26.383 20.944 26.383 19.503C26.383 15.983 23.521 13.119 20.001 13.119C16.481 13.119 13.617 15.983 13.617 19.503C13.617 20.941 14.089 22.301 14.983 23.437C15.194 23.707 15.425 23.972 15.67 24.255C16.513 25.234 17.558 26.447 17.98 27.988C18.042 28.229 18.114 28.596 18.122 29.347Z" fill="#212327"/>
</g>
<g id="Group_4">
<path id="Vector_2" d="M22.7459 33.5881H17.2079C16.7029 33.5881 16.2959 33.1791 16.2959 32.6741C16.2959 32.1701 16.7029 31.7631 17.2079 31.7631H22.7459C23.2499 31.7631 23.6569 32.1701 23.6569 32.6741C23.6569 33.1791 23.2499 33.5881 22.7459 33.5881Z" fill="#212327"/>
</g>
<g id="Group_5">
<path id="Vector_3" d="M21.3617 36.0001H18.5927C18.0877 36.0001 17.6787 35.5911 17.6787 35.0881C17.6787 34.5841 18.0877 34.1741 18.5927 34.1741H21.3617C21.8637 34.1741 22.2737 34.5841 22.2737 35.0881C22.2737 35.5911 21.8637 36.0001 21.3617 36.0001Z" fill="#212327"/>
</g>
</g>
<g id="Group_6">
<path id="Vector_4" d="M34.5923 20.4149H30.9443C30.4403 20.4149 30.0303 20.0079 30.0303 19.5029C30.0303 18.9989 30.4403 18.5909 30.9443 18.5909H34.5923C35.0963 18.5909 35.5033 18.9989 35.5033 19.5029C35.5033 20.0079 35.0963 20.4149 34.5923 20.4149Z" fill="#212327"/>
</g>
<g id="Group_7">
<path id="Vector_5" d="M9.05707 20.4149H5.40807C4.90407 20.4149 4.49707 20.0079 4.49707 19.5029C4.49707 18.9989 4.90407 18.5909 5.40807 18.5909H9.05607C9.56007 18.5909 9.97007 18.9989 9.97007 19.5029C9.97107 20.0079 9.56107 20.4149 9.05707 20.4149Z" fill="#212327"/>
</g>
<g id="Group_8">
<path id="Vector_6" d="M19.9999 9.474C19.4949 9.474 19.0859 9.067 19.0859 8.562V4.912C19.0859 4.409 19.4949 4 19.9999 4C20.5049 4 20.9119 4.409 20.9119 4.912V8.561C20.9119 9.066 20.5049 9.474 19.9999 9.474Z" fill="#212327"/>
</g>
<g id="Group_9">
<path id="Vector_7" d="M30.3142 30.733C30.0822 30.733 29.8492 30.644 29.6702 30.465L27.0912 27.885C26.7352 27.53 26.7352 26.951 27.0912 26.594C27.4482 26.238 28.0252 26.24 28.3812 26.596L30.9602 29.175C31.3172 29.532 31.3172 30.111 30.9602 30.467C30.7822 30.646 30.5502 30.733 30.3142 30.733Z" fill="#212327"/>
</g>
<g id="Group_10">
<path id="Vector_8" d="M12.2603 12.6789C12.0283 12.6789 11.7943 12.5899 11.6143 12.4109L9.03728 9.83295C8.68028 9.47595 8.68028 8.89695 9.03728 8.53995C9.39428 8.18395 9.97128 8.18395 10.3273 8.53995L12.9063 11.1189C13.2633 11.4749 13.2633 12.0549 12.9063 12.4109C12.7283 12.5899 12.4953 12.6789 12.2603 12.6789Z" fill="#212327"/>
</g>
<g id="Group_11">
<path id="Vector_9" d="M9.68228 30.733C9.44928 30.733 9.21628 30.646 9.03728 30.467C8.68028 30.111 8.68028 29.532 9.03728 29.175L11.6183 26.594C11.9723 26.238 12.5493 26.238 12.9063 26.594C13.2633 26.951 13.2633 27.53 12.9063 27.887L10.3273 30.467C10.1483 30.645 9.91628 30.733 9.68228 30.733Z" fill="#212327"/>
</g>
<g id="Group_12">
<path id="Vector_10" d="M27.7377 12.679C27.5047 12.679 27.2717 12.5901 27.0917 12.4111C26.7377 12.0551 26.7377 11.4771 27.0917 11.1211L29.6707 8.54205C30.0247 8.18605 30.6057 8.18405 30.9607 8.54005C31.3177 8.89705 31.3177 9.47405 30.9607 9.83105L28.3837 12.4091C28.2057 12.5881 27.9727 12.679 27.7377 12.679Z" fill="#212327"/>
</g>
</g>
</g>
</svg>
