<svg width="201" height="169" viewBox="0 0 201 169" fill="none" xmlns="http://www.w3.org/2000/svg">
<g filter="url(#filter0_dddd_780_99)">
<rect x="13" y="3" width="170.389" height="113.264" rx="20" fill="#F5F5FF"/>
<path d="M55.0756 94.054C54.1156 92.905 53.5176 91.43 53.5176 89.816V37.873C53.5176 34.217 56.4816 31.253 60.1376 31.253H125.396" stroke="#4A5061" stroke-miterlimit="10" stroke-linecap="round" stroke-linejoin="round"/>
<path d="M155.254 57.068V89.816C155.254 91.437 154.687 92.903 153.72 94.054" stroke="#4A5061" stroke-miterlimit="10" stroke-linecap="round" stroke-linejoin="round"/>
<path d="M151.371 62.653V83.448C151.371 87.104 148.407 90.068 144.751 90.068H64.0223C60.3663 90.068 57.4023 87.104 57.4023 83.448V41.28C57.4023 37.624 60.3663 34.66 64.0223 34.66H125.869" stroke="#4A5061" stroke-miterlimit="10" stroke-linecap="round" stroke-linejoin="round"/>
<path d="M162.859 94.054H45.914C44.259 94.054 42.917 95.396 42.917 97.051V97.267C42.917 98.922 44.259 100.264 45.914 100.264H162.858C164.513 100.264 165.855 98.922 165.855 97.267V97.051C165.856 95.396 164.514 94.054 162.859 94.054Z" stroke="#4A5061" stroke-miterlimit="10" stroke-linecap="round" stroke-linejoin="round"/>
<path opacity="0.3" d="M123.463 97.16H85.3095C84.4855 97.16 83.8105 96.486 83.8105 95.661V95.553C83.8105 94.729 84.4845 94.054 85.3095 94.054H123.463C124.287 94.054 124.962 94.728 124.962 95.553V95.661C124.961 96.485 124.287 97.16 123.463 97.16Z" fill="#1B2268"/>
<path d="M123.463 97.16H85.3095C84.4855 97.16 83.8105 96.486 83.8105 95.661V95.553C83.8105 94.729 84.4845 94.054 85.3095 94.054H123.463C124.287 94.054 124.962 94.728 124.962 95.553V95.661C124.961 96.485 124.287 97.16 123.463 97.16Z" stroke="#4A5061" stroke-miterlimit="10" stroke-linecap="round" stroke-linejoin="round"/>
<path d="M67.7168 44.767H102.717" stroke="#4A5061" stroke-miterlimit="10" stroke-linecap="round" stroke-linejoin="round"/>
<path d="M67.7168 54.767H107.717" stroke="#4A5061" stroke-miterlimit="10" stroke-linecap="round" stroke-linejoin="round"/>
<path d="M33.8564 28.868V38.58" stroke="#4A5061" stroke-miterlimit="10" stroke-linecap="round" stroke-linejoin="round"/>
<path d="M38.712 33.724H29" stroke="#4A5061" stroke-miterlimit="10" stroke-linecap="round" stroke-linejoin="round"/>
<path d="M41.8203 50.501V56.316" stroke="#4A5061" stroke-miterlimit="10" stroke-linecap="round" stroke-linejoin="round"/>
<path d="M44.7271 53.408H38.9131" stroke="#4A5061" stroke-miterlimit="10" stroke-linecap="round" stroke-linejoin="round"/>
<path d="M164.158 39.557L167.389 38.68L165.321 31.065L161.605 32.074C160.56 30.177 159.359 28.702 157.999 27.477L159.882 23.942L152.934 19.891L151.025 23.208C148.914 22.538 146.565 22.218 144.408 22.304L143.511 19L136.404 20.93L137.301 24.234C134.382 25.527 133.161 26.772 131.679 28.417L128.147 26.533L124.098 33.48L127.515 35.755C126.961 37.5 126.63 39.391 126.688 41.556L122.677 42.645L124.745 50.26L128.271 49.302C129.351 51.734 130.869 53.622 132.793 55.355L130.824 58.576L137.729 62.47L139.977 58.977C142.088 59.647 143.761 60.066 146.933 59.705L147.983 63.571L155.09 61.641L154.04 57.775C155.944 56.757 157.82 55.335 159.302 53.689L162.654 55.622L166.613 48.699L163.321 47.063C164.106 44.596 164.457 42.202 164.158 39.557ZM148.253 52.518C141.941 54.232 135.434 50.505 133.72 44.193C132.006 37.881 135.733 31.374 142.045 29.659C148.357 27.945 154.864 31.672 156.579 37.984C158.293 44.297 154.565 50.804 148.253 52.518Z" stroke="#4A5061" stroke-miterlimit="10" stroke-linecap="round" stroke-linejoin="round"/>
<path opacity="0.3" d="M164.158 39.557L167.389 38.68L165.321 31.065L161.605 32.074C160.56 30.177 159.359 28.702 157.999 27.477L159.882 23.942L152.934 19.891L151.025 23.208C148.914 22.538 146.565 22.218 144.408 22.304L143.511 19L136.404 20.93L137.301 24.234C134.382 25.527 133.161 26.772 131.679 28.417L128.147 26.533L124.098 33.48L127.515 35.755C126.961 37.5 126.63 39.391 126.688 41.556L122.677 42.645L124.745 50.26L128.271 49.302C129.351 51.734 130.869 53.622 132.793 55.355L130.824 58.576L137.729 62.47L139.977 58.977C142.088 59.647 143.761 60.066 146.933 59.705L147.983 63.571L155.09 61.641L154.04 57.775C155.944 56.757 157.82 55.335 159.302 53.689L162.654 55.622L166.613 48.699L163.321 47.063C164.106 44.596 164.457 42.202 164.158 39.557ZM148.253 52.518C141.941 54.232 135.434 50.505 133.72 44.193C132.006 37.881 135.733 31.374 142.045 29.659C148.357 27.945 154.864 31.672 156.579 37.984C158.293 44.297 154.565 50.804 148.253 52.518Z" fill="#1B2268"/>
<path d="M67.7168 63.767H121.717" stroke="#4A5061" stroke-miterlimit="10" stroke-linecap="round" stroke-linejoin="round"/>
<path opacity="0.3" d="M139.33 82.072H69.4434C68.1144 82.072 67.0264 80.985 67.0264 79.655V74.473C67.0264 73.144 68.1144 72.056 69.4434 72.056H139.33C140.659 72.056 141.747 73.143 141.747 74.473V79.655C141.747 80.985 140.659 82.072 139.33 82.072Z" fill="#1B2268"/>
</g>
<defs>
<filter id="filter0_dddd_780_99" x="0" y="0" width="200.389" height="168.264" filterUnits="userSpaceOnUse" color-interpolation-filters="sRGB">
<feFlood flood-opacity="0" result="BackgroundImageFix"/>
<feColorMatrix in="SourceAlpha" type="matrix" values="0 0 0 0 0 0 0 0 0 0 0 0 0 0 0 0 0 0 127 0" result="hardAlpha"/>
<feOffset dy="2"/>
<feGaussianBlur stdDeviation="2.5"/>
<feColorMatrix type="matrix" values="0 0 0 0 0.0470588 0 0 0 0 0.0627451 0 0 0 0 0.27451 0 0 0 0.1 0"/>
<feBlend mode="normal" in2="BackgroundImageFix" result="effect1_dropShadow_780_99"/>
<feColorMatrix in="SourceAlpha" type="matrix" values="0 0 0 0 0 0 0 0 0 0 0 0 0 0 0 0 0 0 127 0" result="hardAlpha"/>
<feOffset dx="1" dy="9"/>
<feGaussianBlur stdDeviation="4.5"/>
<feColorMatrix type="matrix" values="0 0 0 0 0.0470588 0 0 0 0 0.0627451 0 0 0 0 0.27451 0 0 0 0.09 0"/>
<feBlend mode="normal" in2="effect1_dropShadow_780_99" result="effect2_dropShadow_780_99"/>
<feColorMatrix in="SourceAlpha" type="matrix" values="0 0 0 0 0 0 0 0 0 0 0 0 0 0 0 0 0 0 127 0" result="hardAlpha"/>
<feOffset dx="1" dy="21"/>
<feGaussianBlur stdDeviation="6.5"/>
<feColorMatrix type="matrix" values="0 0 0 0 0.0470588 0 0 0 0 0.0627451 0 0 0 0 0.27451 0 0 0 0.05 0"/>
<feBlend mode="normal" in2="effect2_dropShadow_780_99" result="effect3_dropShadow_780_99"/>
<feColorMatrix in="SourceAlpha" type="matrix" values="0 0 0 0 0 0 0 0 0 0 0 0 0 0 0 0 0 0 127 0" result="hardAlpha"/>
<feOffset dx="2" dy="37"/>
<feGaussianBlur stdDeviation="7.5"/>
<feColorMatrix type="matrix" values="0 0 0 0 0.0470588 0 0 0 0 0.0627451 0 0 0 0 0.27451 0 0 0 0.01 0"/>
<feBlend mode="normal" in2="effect3_dropShadow_780_99" result="effect4_dropShadow_780_99"/>
<feBlend mode="normal" in="SourceGraphic" in2="effect4_dropShadow_780_99" result="shape"/>
</filter>
</defs>
</svg>
