<svg width="80" height="80" viewBox="0 0 80 80" fill="none" xmlns="http://www.w3.org/2000/svg">
<g id="grommet-icons:launch">
<path id="Vector" d="M26.6663 66.6667H13.333V63.3334C13.333 53.3334 23.333 46.6667 23.333 46.6667V30C23.333 16.6667 33.333 3.33337 39.9997 3.33337C46.6663 3.33337 56.6663 16.6667 56.6663 30V46.6667C56.6663 46.6667 66.6663 53.3334 66.6663 63.3334V66.6667H53.333M26.6663 66.6667L33.333 76.6667H46.6663L53.333 66.6667M26.6663 66.6667H53.333M39.9997 30C40.8837 30 41.7316 29.6489 42.3567 29.0237C42.9818 28.3986 43.333 27.5508 43.333 26.6667C43.333 25.7827 42.9818 24.9348 42.3567 24.3097C41.7316 23.6846 40.8837 23.3334 39.9997 23.3334C39.1156 23.3334 38.2678 23.6846 37.6427 24.3097C37.0175 24.9348 36.6663 25.7827 36.6663 26.6667C36.6663 27.5508 37.0175 28.3986 37.6427 29.0237C38.2678 29.6489 39.1156 30 39.9997 30Z" stroke="#212327" stroke-width="4"/>
</g>
</svg>
